HIERARCHY
ROOT Hips
{
	OFFSET 0.000000 0.000000 0.000000
	CHANNELS 6 Xposition Yposition Zposition Xrotation Yrotation Zrotation
	JOINT LeftUpLeg_virtual
	{
		OFFSET 0.000000 0.000000 0.000000
		CHANNELS 3 Xrotation Yrotation Zrotation
		JOINT LeftUpLeg
		{
			OFFSET 13.026900 -6.336304 -1.092800
			CHANNELS 3 Xrotation Yrotation Zrotation
			JOINT LeftLeg
			{
				OFFSET 0.524474 -46.096886 9.782700
				CHANNELS 3 Xrotation Yrotation Zrotation
				JOINT LeftFoot
				{
					OFFSET -0.524474 -53.427422 -12.948200
					CHANNELS 3 Xrotation Yrotation Zrotation
					JOINT LeftToeBase
					{
						OFFSET 0.192200 -14.009700 16.364100
						CHANNELS 3 Xrotation Yrotation Zrotation
						JOINT LeftToe_End
						{
							OFFSET -1.784700 -0.561700 9.474800
							CHANNELS 3 Xrotation Yrotation Zrotation
							End Site
							{
								OFFSET 0 0 0
							}
						}
					}
				}
			}
		}
	}
	JOINT RightUpLeg_virtual
	{
		OFFSET 0.000000 0.000000 0.000000
		CHANNELS 3 Xrotation Yrotation Zrotation
		JOINT RightUpLeg
		{
			OFFSET -12.883000 -6.336304 -1.092800
			CHANNELS 3 Xrotation Yrotation Zrotation
			JOINT RightLeg
			{
				OFFSET -0.524587 -46.096825 9.782800
				CHANNELS 3 Xrotation Yrotation Zrotation
				JOINT RightFoot
				{
					OFFSET 0.524587 -53.427383 -12.948300
					CHANNELS 3 Xrotation Yrotation Zrotation
					JOINT RightToeBase
					{
						OFFSET -0.192200 -14.009700 16.364100
						CHANNELS 3 Xrotation Yrotation Zrotation
						JOINT RightToe_End
						{
							OFFSET 1.784700 -0.561700 9.474800
							CHANNELS 3 Xrotation Yrotation Zrotation
							End Site
							{
								OFFSET 0 0 0
							}
						}
					}
				}
			}
		}
	}
	JOINT Spine_virtual
	{
		OFFSET 0.000000 0.000000 0.000000
		CHANNELS 3 Xrotation Yrotation Zrotation
		JOINT Spine
		{
			OFFSET 0.072000 7.257294 -0.789700
			CHANNELS 3 Xrotation Yrotation Zrotation
			JOINT Spine1
			{
				OFFSET 0.000000 12.508769 -0.658067
				CHANNELS 3 Xrotation Yrotation Zrotation
				JOINT Spine1_split
				{
					OFFSET 0.000000 12.508769 -0.658067
					CHANNELS 3 Xrotation Yrotation Zrotation
					JOINT Spine2
					{
						OFFSET 0.000000 12.508769 -0.658067
						CHANNELS 3 Xrotation Yrotation Zrotation
						JOINT Neck_virtual
						{
							OFFSET 0.000000 0.000000 0.000000
							CHANNELS 3 Xrotation Yrotation Zrotation
							JOINT Neck
							{
								OFFSET 0.000000 14.033295 7.520400
								CHANNELS 3 Xrotation Yrotation Zrotation
								JOINT Head
								{
									OFFSET 0.000000 8.198502 5.703100
									CHANNELS 3 Xrotation Yrotation Zrotation
									JOINT HeadTop_End
									{
										OFFSET 0.000000 17.760803 13.332701
										CHANNELS 3 Xrotation Yrotation Zrotation
										End Site
										{
											OFFSET 0 0 0
										}
									}
								}
							}
						}
						JOINT LeftShoulder_virtual
						{
							OFFSET 0.000000 0.000000 0.000000
							CHANNELS 3 Xrotation Yrotation Zrotation
							JOINT LeftShoulder
							{
								OFFSET 6.292450 5.785301 -0.669000
								CHANNELS 3 Xrotation Yrotation Zrotation
								JOINT LeftShoulder_split
								{
									OFFSET 6.292450 5.785301 -0.669000
									CHANNELS 3 Xrotation Yrotation Zrotation
									JOINT LeftArm
									{
										OFFSET 13.907140 -6.093903 1.965100
										CHANNELS 3 Xrotation Yrotation Zrotation
										JOINT LeftForeArm
										{
											OFFSET 34.140198 0.000000 0.000000
											CHANNELS 3 Xrotation Yrotation Zrotation
											JOINT LeftHand
											{
												OFFSET 40.960209 0.000000 0.000000
												CHANNELS 3 Xrotation Yrotation Zrotation
												End Site
												{
													OFFSET 0 0 0
												}
											}
										}
									}
								}
							}
						}
						JOINT RightShoulder_virtual
						{
							OFFSET 0.000000 0.000000 0.000000
							CHANNELS 3 Xrotation Yrotation Zrotation
							JOINT RightShoulder
							{
								OFFSET -6.292450 5.785301 -0.669000
								CHANNELS 3 Xrotation Yrotation Zrotation
								JOINT RightShoulder_split
								{
									OFFSET -6.292450 5.785301 -0.669000
									CHANNELS 3 Xrotation Yrotation Zrotation
									JOINT RightArm
									{
										OFFSET -13.907140 -6.093903 1.965100
										CHANNELS 3 Xrotation Yrotation Zrotation
										JOINT RightForeArm
										{
											OFFSET -34.140198 0.000000 0.000000
											CHANNELS 3 Xrotation Yrotation Zrotation
											JOINT RightHand
											{
												OFFSET -40.960209 0.000000 0.000000
												CHANNELS 3 Xrotation Yrotation Zrotation
												End Site
												{
													OFFSET 0 0 0
												}
											}
										}
									}
								}
							}
						}
					}
				}
			}
		}
	}
}
MOTION
Frames: 4
Frame Time: 0.03333333
-1.018248 91.703232 -0.318430 0.000000 0.000000 0.000000 -4.300437 -74.744632 -2.478990 -41.714451 11.918199 50.000072 37.810507 -1.045648 -7.133175 10.551140 -1.853437 -22.334626 -0.040096 -0.002765 -0.047263 0.000000 0.000000 0.000000 -4.300437 -74.744632 -2.478990 -40.757194 0.137873 -25.737912 57.691958 9.343751 -7.058063 -14.817537 -4.533480 21.837245 -0.005276 -0.000115 -0.000153 0.000000 0.000000 0.000000 -4.300437 -74.744632 -2.478990 2.946855 -0.494996 -2.362274 5.893828 -0.904742 -3.151097 0.000000 0.000000 0.000000 0.000000 0.000000 0.000000 5.893817 -0.904606 -3.151105 -2.451536 24.309792 7.456973 0.154240 27.772031 -8.534005 0.000000 0.000000 0.000000 5.893817 -0.904606 -3.151105 0.279784 -7.010231 -19.556606 0.000000 0.000000 0.000000 -39.504052 -20.309122 -2.427281 -5.614192 -32.071570 -2.800586 0.000000 0.000000 0.000000 5.893817 -0.904606 -3.151105 0.636234 13.855935 9.110353 0.000000 0.000000 0.000000 35.455280 67.114422 -18.850909 0.649682 83.885282 -11.766924 0.000000 0.000000 0.000000 
-0.989727 92.003090 -0.326075 0.000000 0.000000 0.000000 -5.292518 -75.166888 -3.473313 -40.763348 12.025223 49.840341 37.414629 -0.325848 -7.010005 10.587118 -1.865824 -22.643945 -0.040189 -0.002718 -0.047374 0.000000 0.000000 0.000000 -5.292518 -75.166888 -3.473313 -40.485533 0.041649 -25.541407 57.234557 9.611931 -7.006248 -14.555234 -4.425554 21.618030 -0.005263 -0.000114 -0.000152 0.000000 0.000000 0.000000 -5.292518 -75.166888 -3.473313 2.894692 -0.465719 -2.320801 5.790268 -0.823339 -3.057954 0.000000 0.000000 0.000000 0.000000 0.000000 0.000000 5.790283 -0.823185 -3.058009 -2.569097 24.400583 7.466811 0.176399 27.894293 -8.544363 0.000000 0.000000 0.000000 5.790283 -0.823185 -3.058009 0.268778 -7.020016 -19.607416 0.000000 0.000000 0.000000 -39.486884 -20.023367 -2.512445 -5.275127 -32.657153 -2.924881 0.000000 0.000000 0.000000 5.790283 -0.823185 -3.058009 0.634737 13.830891 9.149998 0.000000 0.000000 0.000000 35.145073 66.734814 -18.516993 1.797620 83.923976 -12.613910 0.000000 0.000000 0.000000 
-0.902243 92.788742 -0.417299 0.000000 0.000000 0.000000 -8.573349 -76.430650 -6.755149 -38.655049 12.937457 49.865282 36.197260 0.997948 -6.766073 10.798956 -1.922296 -23.170099 -0.040601 -0.002743 -0.047852 0.000000 0.000000 0.000000 -8.573349 -76.430650 -6.755149 -39.819586 -0.188997 -24.927315 56.077229 10.434610 -6.863924 -13.828147 -4.115618 20.932045 -0.005261 -0.000095 -0.000155 0.000000 0.000000 0.000000 -8.573349 -76.430650 -6.755149 2.730986 -0.376147 -2.224451 5.463876 -0.576415 -2.823615 0.000000 0.000000 0.000000 0.000000 0.000000 0.000000 5.463879 -0.576620 -2.823581 -2.878979 24.654567 7.494871 0.243573 28.241666 -8.588790 0.000000 0.000000 0.000000 5.463879 -0.576620 -2.823581 0.178886 -7.112263 -19.959754 0.000000 0.000000 0.000000 -38.090029 -18.526651 -4.022166 -4.376993 -34.383657 -3.672004 0.000000 0.000000 0.000000 5.463879 -0.576620 -2.823581 0.618023 13.645852 9.451073 0.000000 0.000000 0.000000 33.426628 66.007720 -15.519197 3.993720 82.618924 -14.044182 0.000000 0.000000 0.000000 
-0.789542 93.777519 -0.618944 0.000000 0.000000 0.000000 -13.489410 -77.827977 -11.651596 -36.100992 14.222072 49.846949 34.441936 2.529197 -6.490330 11.243256 -2.029822 -23.711024 -0.040730 -0.002724 -0.048022 0.000000 0.000000 0.000000 -13.489410 -77.827977 -11.651596 -38.844280 -0.296055 -24.233289 54.445658 9.856709 -6.782350 -12.913851 -2.407330 20.750514 -0.005271 -0.000108 -0.000153 0.000000 0.000000 0.000000 -13.489410 -77.827977 -11.651596 2.624907 -0.304010 -2.118563 5.251880 -0.370023 -2.520961 0.000000 0.000000 0.000000 0.000000 0.000000 0.000000 5.251885 -0.369749 -2.520973 -3.341078 25.041032 7.539485 0.367113 28.770683 -8.674012 0.000000 0.000000 0.000000 5.251885 -0.369749 -2.520973 -0.007884 -7.332804 -20.527671 0.000000 0.000000 0.000000 -35.072700 -16.294477 -6.885077 -3.084731 -37.890095 -4.806804 0.000000 0.000000 0.000000 5.251885 -0.369749 -2.520973 0.583428 13.311847 10.010968 0.000000 0.000000 0.000000 29.395905 64.655718 -10.020306 5.849171 80.267379 -14.787431 0.000000 0.000000 0.000000 
